<?xml version="1.0" encoding="UTF-8" standalone="no"?>
<!-- Created with Inkscape (http://www.inkscape.org/) -->

<svg
   xmlns:dc="http://purl.org/dc/elements/1.1/"
   xmlns:cc="http://creativecommons.org/ns#"
   xmlns:rdf="http://www.w3.org/1999/02/22-rdf-syntax-ns#"
   xmlns:svg="http://www.w3.org/2000/svg"
   xmlns="http://www.w3.org/2000/svg"
   xmlns:sodipodi="http://sodipodi.sourceforge.net/DTD/sodipodi-0.dtd"
   xmlns:inkscape="http://www.inkscape.org/namespaces/inkscape"
   width="370"
   height="130"
   viewBox="0 0 97.895831 34.395835"
   version="1.1"
   id="svg106"
   inkscape:version="0.92.1 r15371"
   sodipodi:docname="logo-midia9-white.svg">
  <defs
     id="defs100" />
  <sodipodi:namedview
     id="base"
     pagecolor="#000000"
     bordercolor="#666666"
     borderopacity="1.0"
     inkscape:pageopacity="0"
     inkscape:pageshadow="2"
     inkscape:zoom="1.4"
     inkscape:cx="190.65476"
     inkscape:cy="76.151874"
     inkscape:document-units="mm"
     inkscape:current-layer="layer1"
     showgrid="false"
     units="px"
     inkscape:window-width="1600"
     inkscape:window-height="847"
     inkscape:window-x="-8"
     inkscape:window-y="-8"
     inkscape:window-maximized="1" />
  <metadata
     id="metadata103">
    <rdf:RDF>
      <cc:Work
         rdf:about="">
        <dc:format>image/svg+xml</dc:format>
        <dc:type
           rdf:resource="http://purl.org/dc/dcmitype/StillImage" />
        <dc:title></dc:title>
      </cc:Work>
    </rdf:RDF>
  </metadata>
  <g
     inkscape:label="Camada 1"
     inkscape:groupmode="layer"
     id="layer1"
     transform="translate(0,-262.60414)">
    <path
       inkscape:connector-curvature="0"
       id="path52"
       style="fill:#f5821f;fill-opacity:1;fill-rule:evenodd;stroke:none;stroke-width:0.36972234"
       d="m 85.965132,289.75812 c -0.902158,-0.0776 -1.739432,-0.81913 -2.078985,-1.39076 -1.009158,-1.69905 -1.01744,-5.84663 -1.670153,-7.21346 l -2.339824,-0.72484 c -2.424937,-0.72971 -3.820371,-0.97929 -5.121724,-2.81343 -0.384625,-0.54224 -0.762033,-1.34767 -0.894167,-2.22717 -0.163316,-1.0867 0.04161,-1.83542 0.397591,-2.98995 0.481487,-1.56134 1.355628,-5.08974 2.183174,-6.22373 0.963353,-1.3203 2.710108,-2.2824 4.444695,-2.18819 1.124724,-0.0704 7.274577,1.97125 8.90742,2.49718 6.163277,1.99742 4.480669,4.34815 2.408604,11.22965 -0.750801,2.49359 -1.503816,4.98651 -2.257058,7.47948 -0.52411,1.73504 -1.210795,4.90207 -3.979573,4.56522 z m -7.698542,-12.80526 6.690753,2.08098 0.563931,3.78862 c 0.06793,0.45631 0.17159,2.07539 0.444595,3.03753 0.292082,1.02926 0.459129,0.8555 0.746394,0.0638 0.204685,-0.56376 0.48127,-1.42315 0.78163,-2.39518 0.780042,-2.52483 1.720354,-5.81041 1.976904,-6.65489 0.486302,-1.6009 1.10692,-3.38485 1.488317,-4.99211 0.430954,-1.81633 -0.635734,-2.28954 -2.353866,-2.80337 -1.725717,-0.51606 -7.044883,-2.4699 -8.496112,-2.21416 -1.631472,0.28735 -2.252536,3.4068 -2.622187,4.60996 -0.551882,1.7957 -1.830157,4.27901 0.779641,5.4788" />
    <path
       d="m 4.8330082,274.89147 c 2.3073629,-0.8423 3.836941,-1.25144 6.9998038,-1.25144 1.451826,0 2.670394,0.36093 3.623057,1.03493 1.970398,-0.698 3.519387,-1.03493 6.397083,-1.03493 4.17398,0 6.377562,3.15277 6.377562,7.05157 v 8.63997 c 0,0.48137 -3.396121,0.48137 -3.396121,0 v -8.63997 c 0,-2.16598 -0.674115,-3.8988 -2.981441,-3.8988 h -0.622243 c -1.296209,0.0481 -2.048039,0.31286 -3.007321,0.64979 v 11.88898 c 0,0.48137 -3.383254,0.48137 -3.383254,0 v -8.63997 c 0,-2.16598 -0.673967,-3.8988 -3.007322,-3.8988 h -0.596214 c -1.29632,0.0481 -2.0481873,0.31286 -3.0073208,0.64979 v 11.88898 c 0,0.48137 -3.396269,0.48137 -3.396269,0 z"
       style="fill:#ffffff;fill-opacity:1;fill-rule:evenodd;stroke:none;stroke-width:0.36972228"
       id="path56"
       inkscape:connector-curvature="0" />
    <path
       d="m 30.37775,273.90476 c 0,-0.36104 3.383254,-0.36104 3.383254,0 v 15.52312 c 0,0.36107 -3.383254,0.36107 -3.383254,0 z"
       style="fill:#ffffff;fill-opacity:1;fill-rule:evenodd;stroke:none;stroke-width:0.36972228"
       id="path58"
       inkscape:connector-curvature="0" />
    <path
       d="m 35.156336,280.6916 c 0,-3.90486 3.42215,-7.08166 7.589623,-7.08166 1.497227,0 2.612014,0.0962 3.623056,0.28883 v -6.52209 c 0,-0.45738 3.396269,-0.45738 3.396269,0 v 21.95489 c 0,0.48137 -3.396269,0.48137 -3.396269,0 v -0.21651 c -0.933253,0.38503 -1.944406,0.57758 -3.000814,0.57758 h -0.622242 c -4.167473,0 -7.589623,-3.15281 -7.589623,-7.05161 z m 11.212679,-3.25496 c -0.95917,-0.36107 -1.711001,-0.6018 -3.000814,-0.6499 h -0.622242 c -2.300819,0 -4.193354,1.73282 -4.193354,3.90486 v 1.94943 c 0,2.14199 1.892535,3.8988 4.193354,3.8988 h 0.622242 c 1.160152,0 2.249058,-0.45727 3.000814,-1.17927 z"
       style="fill:#ffffff;fill-opacity:1;fill-rule:evenodd;stroke:none;stroke-width:0.36972228"
       id="path60"
       inkscape:connector-curvature="0" />
    <path
       d="m 53.487352,272.19605 c -7.597719,0 8.063681,0 0,0 z m -1.574869,1.70871 c 0,-0.36104 3.383255,-0.36104 3.383255,0 v 15.52312 c 0,0.36107 -3.383255,0.36107 -3.383255,0 z"
       style="fill:#ffffff;fill-opacity:1;fill-rule:evenodd;stroke:none;stroke-width:0.36972228"
       id="path62"
       inkscape:connector-curvature="0" />
    <path
       d="m 68.720391,289.11506 c -0.933253,0.36092 -1.944406,0.57758 -3.007321,0.57758 h -0.622205 c -4.225778,0 -7.647928,-3.17681 -7.647928,-7.05161 v -1.94943 c 0,-3.8988 3.42215,-7.05157 7.647928,-7.05157 3.188817,0 4.744313,0.43313 7.051676,1.25144 v 14.4401 c 0,0.48137 -3.42215,0.48137 -3.42215,0 z m 0,-11.67247 c -0.959244,-0.33693 -1.711111,-0.57758 -3.007321,-0.64979 h -0.622205 c -2.333244,0 -4.225778,1.75681 -4.225778,3.8988 v 1.94943 c 0,2.14199 1.892534,3.8988 4.225778,3.8988 h 0.622205 c 1.166659,0 2.255454,-0.45727 3.007321,-1.17927 z"
       style="fill:#ffffff;fill-opacity:1;fill-rule:evenodd;stroke:none;stroke-width:0.36972228"
       id="path64"
       inkscape:connector-curvature="0" />
    <path
       inkscape:connector-curvature="0"
       id="path66"
       style="fill:#f5821f;fill-opacity:1;fill-rule:evenodd;stroke:none;stroke-width:0.36972234"
       d="m 32.730886,267.84116 c 0.493506,-0.77871 3.531144,0.64894 3.011832,1.42817 l -2.881653,3.08947 c -0.493542,0.77878 -2.252459,-0.15584 -1.758918,-0.93463 z" />
    <path
       inkscape:connector-curvature="0"
       id="path68"
       style="fill:#ffffff;fill-opacity:1;fill-rule:nonzero;stroke:none;stroke-width:0.36972234"
       d="m 4.8660254,292.16512 c 0.3325279,-0.12711 0.5530303,-0.19428 1.0125948,-0.19428 0.6016866,0 1.0912352,0.48954 1.0912352,1.09488 v 0.30174 c 0,0.6053 -0.4895486,1.09394 -1.0912352,1.09394 h -0.089587 c -0.1532491,0 -0.2990302,-0.0336 -0.4335724,-0.0896 v 0.99019 c 0,0.0748 -0.4894386,0.0748 -0.4894386,0 z m 1.6142814,0.9006 c 0,-0.33267 -0.269047,-0.60534 -0.6016866,-0.60534 h -0.089587 c -0.1868576,0.0112 -0.2952593,0.0485 -0.4335724,0.10081 v 1.22849 c 0.1121362,0.11214 0.265349,0.18308 0.4335724,0.18308 h 0.089587 c 0.3326396,0 0.6016866,-0.27278 0.6016866,-0.6053 z m 0.8585313,9.1e-4 c 0,-0.60546 0.4895495,-1.09486 1.094896,-1.09486 h 0.085927 c 0.6054575,0 1.094896,0.4894 1.094896,1.09486 v 0.30269 c 0,0.6053 -0.4894385,1.09486 -1.094896,1.09486 h -0.085927 c -0.6053465,0 -1.094896,-0.48956 -1.094896,-1.09486 z m 1.7862774,0 c 0,-0.33265 -0.2691217,-0.60546 -0.6054575,-0.60546 H 8.433731 c -0.3362985,0 -0.6053464,0.27281 -0.6053464,0.60546 v 0.30269 c 0,0.33252 0.2690479,0.6053 0.6053464,0.6053 h 0.085927 c 0.3363358,0 0.6054575,-0.27278 0.6054575,-0.6053 z m 1.0537075,-0.6418 H 9.8574979 c -0.074726,0 -0.074726,-0.45306 0,-0.45306 h 0.3213251 v -0.6652 c 0,-0.071 0.489512,-0.071 0.489512,0 v 0.6652 h 0.455905 c 0.07473,0 0.07473,0.45306 0,0.45306 h -0.455905 v 1.36767 c 0,0.19807 0.157022,0.18309 0.354971,0.18309 h 0.100936 c 0.07473,0 0.07473,0.48954 0,0.48954 h -0.100936 c -0.541828,0 -0.844483,-0.086 -0.844483,-0.63898 z m 2.28322,2.0403 c -0.586675,-0.005 -1.094857,-0.48211 -1.094857,-1.09393 v -0.30269 c 0,-0.6045 0.489511,-1.09404 1.094857,-1.09404 h 0.01868 c 0.605457,0 1.094969,0.48954 1.094969,1.09404 v 0.11957 c 0,0.12327 -0.02618,0.25688 -0.100936,0.25688 H 11.86047 c 0.04112,0.29892 0.302692,0.53063 0.601575,0.53063 h 0.09351 c 0.242833,0 0.433463,-0.15322 0.519385,-0.29889 0.0673,-0.11594 0.48955,0.127 0.422261,0.24662 -0.153213,0.26523 -0.48955,0.54181 -0.945417,0.54181 z m 0,-2.00112 c -0.310085,0 -0.568041,0.23548 -0.601574,0.53818 H 13.0824 c -0.03364,-0.3027 -0.291489,-0.53818 -0.601685,-0.53818 z m 1.491978,-0.29795 c 0.332564,-0.12711 0.553068,-0.19429 1.008935,-0.19429 0.605346,0 1.094896,0.4894 1.094896,1.09486 v 1.3415 c 0,0.0748 -0.48955,0.0748 -0.48955,0 v -1.3415 c 0,-0.33265 -0.269009,-0.60546 -0.605346,-0.60546 h -0.08593 c -0.186857,0.0112 -0.295223,0.0486 -0.433573,0.10093 v 1.84602 c 0,0.0748 -0.489439,0.0748 -0.489439,0 z m 3.566785,2.29624 c -0.585751,0 -1.093934,-0.47832 -1.093934,-1.09487 v -0.29892 c 0,-0.54937 0.433461,-1.09497 1.090273,-1.09862 h 0.09336 c 0.455905,0 0.78762,0.27644 0.944494,0.54547 0.06729,0.11592 -0.354971,0.36252 -0.4213,0.24295 -0.08596,-0.14569 -0.276589,-0.30269 -0.519423,-0.29892 h -0.09346 c -0.365251,0 -0.604424,0.30636 -0.604424,0.60912 v 0.29892 c 0,0.3363 0.280251,0.60531 0.600763,0.60531 h 0.09712 c 0.242833,0.005 0.433461,-0.14944 0.519422,-0.29522 0.06633,-0.11946 0.488588,0.12714 0.421299,0.24295 -0.156873,0.26904 -0.488588,0.5456 -0.944493,0.54183 z m 1.34442,-3.13329 c 0,-0.17189 0.138203,-0.30647 0.305503,-0.30647 h 0.03354 c 0.167261,0 0.305501,0.13458 0.305501,0.30647 v 0.10836 c 0,0.17189 -0.13824,0.31009 -0.305501,0.31009 h -0.03354 c -0.1673,0 -0.305503,-0.1382 -0.305503,-0.31009 z m 0.07839,0.68383 c 0,-0.0561 0.487737,-0.0561 0.487737,0 v 2.41025 c 0,0.0561 -0.487737,0.0561 -0.487737,0 z m 2.60277,2.36164 c -0.134467,0.0561 -0.280248,0.0897 -0.433461,0.0897 h -0.08969 c -0.609008,0 -1.102327,-0.49333 -1.102327,-1.09485 v -0.30269 c 0,-0.60546 0.493319,-1.09487 1.102327,-1.09487 0.459675,0 0.683949,0.0672 1.016477,0.1943 v 2.24206 c 0,0.0748 -0.49332,0.0748 -0.49332,0 z m 0,-1.81238 c -0.138238,-0.0523 -0.246604,-0.0897 -0.433461,-0.10092 h -0.08969 c -0.336336,0 -0.609008,0.27281 -0.609008,0.60546 v 0.3027 c 0,0.33251 0.272672,0.6053 0.609008,0.6053 h 0.08969 c 0.168223,0 0.325096,-0.0709 0.433461,-0.18308 z m 0.984645,-1.56573 c 0,-0.0597 0.488588,-0.0597 0.488588,0 v 2.58221 c 0,0.24661 0.02525,0.30635 0.05147,0.33999 0.03731,0.0486 0.175655,0.0523 0.205491,0.0523 0.129884,0 0.141086,0.49332 -0.0075,0.49332 -0.183199,-0.005 -0.443816,0.0187 -0.592333,-0.10836 -0.100935,-0.10836 -0.145782,-0.24662 -0.145782,-0.42969 z m 1.143588,0.33264 c 0,-0.17189 0.138239,-0.30647 0.305501,-0.30647 h 0.03357 c 0.167263,0 0.305503,0.13458 0.305503,0.30647 v 0.10836 c 0,0.17189 -0.13824,0.31009 -0.305503,0.31009 h -0.03357 c -0.167262,0 -0.305501,-0.1382 -0.305501,-0.31009 z m 0.07841,0.68383 c 0,-0.0561 0.487737,-0.0561 0.487737,0 v 2.41025 c 0,0.0561 -0.487737,0.0561 -0.487737,0 z m 2.17674,0.41565 h -1.210656 c -0.05986,0 -0.05986,-0.45214 0,-0.45214 h 1.7899 c 0.05232,0 0.05609,0.34754 0.01501,0.441 l -1.233208,1.59565 h 1.263082 c 0.05605,0 0.05605,0.45213 0,0.45213 h -1.89464 c -0.05232,0 -0.05232,-0.39238 -0.0075,-0.44847 z m 1.946958,2.03664 c -0.586712,-0.005 -1.094896,-0.48211 -1.094896,-1.09393 v -0.30269 c 0,-0.6045 0.48955,-1.09404 1.094896,-1.09404 h 0.01863 c 0.605457,0 1.095008,0.48954 1.095008,1.09404 v 0.11957 c 0,0.12327 -0.02621,0.25688 -0.100938,0.25688 h -1.614276 c 0.04107,0.29892 0.302654,0.53063 0.601575,0.53063 h 0.09346 c 0.242834,0 0.433462,-0.15322 0.519423,-0.29889 0.06725,-0.11594 0.489512,0.127 0.422223,0.24662 -0.153213,0.26523 -0.489513,0.54181 -0.945417,0.54181 z m 0,-2.00112 c -0.310123,0 -0.568042,0.23548 -0.601575,0.53818 h 1.221894 c -0.03364,-0.3027 -0.291451,-0.53818 -0.601686,-0.53818 z m 3.745213,0.94176 -0.0076,-0.005 c -0.07839,-0.005 -0.235366,-0.0299 -0.377376,-0.11958 -0.160681,-0.10458 -0.295225,-0.28778 -0.29892,-0.5606 0.0036,-0.29145 0.145706,-0.49321 0.343768,-0.61278 0.179425,-0.10837 0.392386,-0.13824 0.560497,-0.13824 0.306425,0.003 0.568043,0.0709 0.754899,0.15322 0.123341,0.056 -0.07473,0.50822 -0.198095,0.45213 -0.130771,-0.0561 -0.325097,-0.11214 -0.556804,-0.1158 -0.119603,0.003 -0.2354,0.0261 -0.310121,0.0709 -0.05985,0.0374 -0.100938,0.086 -0.100938,0.19053 0,0.0861 0.03364,0.12337 0.07106,0.14577 0.05232,0.0336 0.115797,0.0411 0.130807,0.0449 h 0.01487 c 0.119606,0.007 0.362513,0 0.575474,0.0748 0.265387,0.0897 0.478348,0.30648 0.478348,0.70537 -0.0075,0.34658 -0.201758,0.60816 -0.545525,0.71652 -0.313969,0.0935 -0.73623,0.0561 -1.244413,-0.086 -0.130807,-0.0373 0.0037,-0.51103 0.134541,-0.47362 0.474577,0.13351 0.788434,0.13729 0.964088,0.085 0.145784,-0.0439 0.198098,-0.12241 0.198098,-0.24944 0,-0.0925 -0.02243,-0.14106 -0.04119,-0.1635 -0.01868,-0.0262 -0.04855,-0.0523 -0.104596,-0.071 -0.05609,-0.0187 -0.127036,-0.0299 -0.209302,-0.0373 -0.04474,-0.005 -0.08593,-0.005 -0.123226,-0.007 z m 2.47285,1.05936 c -0.586675,-0.005 -1.094894,-0.48211 -1.094894,-1.09393 v -0.30269 c 0,-0.6045 0.489549,-1.09404 1.094894,-1.09404 h 0.01867 c 0.60542,0 1.094969,0.48954 1.094969,1.09404 v 0.11957 c 0,0.12327 -0.02621,0.25688 -0.100936,0.25688 h -1.614278 c 0.04107,0.29892 0.302693,0.53063 0.601577,0.53063 h 0.09346 c 0.242833,0 0.4335,-0.15322 0.519423,-0.29889 0.0673,-0.11594 0.489548,0.127 0.42226,0.24662 -0.15325,0.26523 -0.489551,0.54181 -0.945454,0.54181 z m 0,-2.00112 c -0.310123,0 -0.568041,0.23548 -0.601575,0.53818 h 1.221897 c -0.03364,-0.3027 -0.291453,-0.53818 -0.601652,-0.53818 z m 1.491976,-0.45117 c 0,-0.0561 0.489441,-0.0561 0.489441,0 v 1.36861 c 0,0.33633 0.269121,0.60535 0.605456,0.60535 h 0.08593 c 0.168113,0 0.321325,-0.0709 0.433461,-0.1831 v -1.79086 c 0.0037,-0.0561 0.489551,-0.0561 0.489551,0 v 2.40742 c 0,0.0598 -0.485778,0.0598 -0.485778,0 v -0.0336 c -0.138351,0.0598 -0.284023,0.0897 -0.437234,0.0897 h -0.08593 c -0.605456,0 -1.094897,-0.48955 -1.094897,-1.09488 z m 3.972259,0.15322 c 0.332532,-0.12711 0.553031,-0.19429 1.008939,-0.19429 0.605344,0 1.094857,0.4894 1.094857,1.09486 v 1.3415 c 0,0.0748 -0.489513,0.0748 -0.489513,0 v -1.3415 c 0,-0.33265 -0.269046,-0.60546 -0.605344,-0.60546 h -0.08596 c -0.186859,0.0112 -0.295222,0.0486 -0.433536,0.10093 v 1.84602 c 0,0.0748 -0.489439,0.0748 -0.489439,0 z m 3.567711,2.29907 c -0.586712,-0.005 -1.094895,-0.48211 -1.094895,-1.09393 v -0.30269 c 0,-0.6045 0.48955,-1.09404 1.094895,-1.09404 h 0.01862 c 0.605458,0 1.095007,0.48954 1.095007,1.09404 v 0.11957 c 0,0.12327 -0.02621,0.25688 -0.100936,0.25688 h -1.614285 c 0.04107,0.29892 0.302657,0.53063 0.601577,0.53063 h 0.09346 c 0.242833,0 0.433461,-0.15322 0.519422,-0.29889 0.0673,-0.11594 0.489514,0.127 0.422258,0.24662 -0.153247,0.26523 -0.489548,0.54181 -0.945451,0.54181 z m 0,-2.00112 c -0.310124,0 -0.568041,0.23548 -0.601575,0.53818 h 1.221896 c -0.03364,-0.3027 -0.291453,-0.53818 -0.601687,-0.53818 z m 2.317826,3.02599 c -0.02999,0 -0.05985,-0.005 -0.0935,-0.007 -0.05975,-0.007 -0.127001,-0.0224 -0.194291,-0.0485 -0.0673,-0.0299 -0.130807,-0.071 -0.186856,-0.12705 -0.05975,-0.0561 -0.104596,-0.1271 -0.145709,-0.2056 -0.05982,-0.11957 0.381183,-0.33629 0.440931,-0.21673 0.01862,0.0374 0.149442,0.19063 0.239136,0.19063 h 0.29526 c 0.194291,0 0.358742,-0.23541 0.358742,-0.42981 v -0.269 c -0.130806,0.0598 -0.28025,0.0897 -0.433461,0.0897 h -0.08596 c -0.605456,0 -1.094858,-0.48951 -1.094858,-1.09487 v -0.30267 c 0,-0.6017 0.489402,-1.09498 1.094858,-1.09498 0.455905,0 0.680067,0.0673 1.008936,0.19806 v 2.47377 c 0,0.46711 -0.377376,0.84463 -0.844482,0.84463 z m 0.713711,-2.92224 c -0.138239,-0.0561 -0.246603,-0.0935 -0.43346,-0.1047 h -0.08596 c -0.33264,0 -0.605457,0.27281 -0.605457,0.60545 v 0.30269 c 0,0.3363 0.272817,0.60535 0.605457,0.60535 h 0.08596 c 0.171845,0 0.325095,-0.0709 0.43346,-0.18312 z m 2.073922,-1.51346 c 0.07106,-0.11213 0.507258,0.0934 0.436307,0.20554 l -0.417636,0.44466 c -0.07095,0.11213 -0.321325,-0.0224 -0.250377,-0.13447 z m -1.209842,2.01695 c 0,-0.60535 0.48955,-1.0949 1.090274,-1.0949 h 0.08973 c 0.600724,0 1.090161,0.48955 1.090161,1.0949 v 0.299 c 0,0.60534 -0.489437,1.09488 -1.090161,1.09488 h -0.08973 c -0.600724,0 -1.090274,-0.48954 -1.090274,-1.09488 z m 1.784392,0 c 0,-0.33635 -0.271859,-0.60535 -0.604387,-0.60535 h -0.08973 c -0.332531,0 -0.600727,0.269 -0.600727,0.60535 v 0.299 c 0,0.33629 0.268196,0.60534 0.600727,0.60534 h 0.08973 c 0.332528,0 0.604387,-0.26905 0.604387,-0.60534 z m 1.949656,1.39105 c -0.585753,0 -1.093935,-0.47832 -1.093935,-1.09487 v -0.29892 c 0,-0.54937 0.433461,-1.09497 1.090273,-1.09862 h 0.09336 c 0.455904,0 0.78762,0.27644 0.944494,0.54547 0.0673,0.11592 -0.354971,0.36252 -0.421301,0.24295 -0.08592,-0.14569 -0.276588,-0.30269 -0.519423,-0.29892 h -0.09346 c -0.36525,0 -0.604386,0.30636 -0.604386,0.60912 v 0.29892 c 0,0.3363 0.280211,0.60531 0.600724,0.60531 h 0.09712 c 0.242833,0.005 0.4335,-0.14944 0.519422,-0.29522 0.06633,-0.11946 0.488588,0.12714 0.421299,0.24295 -0.156873,0.26904 -0.488587,0.5456 -0.944491,0.54183 z m 1.34442,-3.13329 c 0,-0.17189 0.138239,-0.30647 0.305502,-0.30647 h 0.03354 c 0.167261,0 0.305501,0.13458 0.305501,0.30647 v 0.10836 c 0,0.17189 -0.13824,0.31009 -0.305501,0.31009 h -0.03354 c -0.167263,0 -0.305502,-0.1382 -0.305502,-0.31009 z m 0.07838,0.68383 c 0,-0.0561 0.487776,-0.0561 0.487776,0 v 2.41025 c 0,0.0561 -0.487776,0.0561 -0.487776,0 z m 0.865149,1.05379 c 0,-0.60546 0.489549,-1.09486 1.094897,-1.09486 h 0.08592 c 0.605458,0 1.094894,0.4894 1.094894,1.09486 v 0.30269 c 0,0.6053 -0.489436,1.09486 -1.094894,1.09486 h -0.08592 c -0.605348,0 -1.094897,-0.48956 -1.094897,-1.09486 z m 1.786279,0 c 0,-0.33265 -0.269158,-0.60546 -0.60546,-0.60546 h -0.08592 c -0.336335,0 -0.605346,0.27281 -0.605346,0.60546 v 0.30269 c 0,0.33252 0.269011,0.6053 0.605346,0.6053 h 0.08592 c 0.336302,0 0.60546,-0.27278 0.60546,-0.6053 z" />
  </g>
</svg>
