<?xml version="1.0" encoding="UTF-8" standalone="no"?>
<!-- Created with Inkscape (http://www.inkscape.org/) -->

<svg
   xmlns:dc="http://purl.org/dc/elements/1.1/"
   xmlns:cc="http://creativecommons.org/ns#"
   xmlns:rdf="http://www.w3.org/1999/02/22-rdf-syntax-ns#"
   xmlns:svg="http://www.w3.org/2000/svg"
   xmlns="http://www.w3.org/2000/svg"
   xmlns:sodipodi="http://sodipodi.sourceforge.net/DTD/sodipodi-0.dtd"
   xmlns:inkscape="http://www.inkscape.org/namespaces/inkscape"
   width="250"
   height="80"
   viewBox="0 0 66.145891 21.166673"
   version="1.1"
   id="svg5393"
   inkscape:version="0.92.1 r15371"
   sodipodi:docname="logo-horizontal.svg">
  <defs
     id="defs5387" />
  <sodipodi:namedview
     id="base"
     pagecolor="#ffffff"
     bordercolor="#666666"
     borderopacity="1.0"
     inkscape:pageopacity="0.0"
     inkscape:pageshadow="2"
     inkscape:zoom="1.979899"
     inkscape:cx="72.957137"
     inkscape:cy="4.8877048"
     inkscape:document-units="mm"
     inkscape:current-layer="layer1"
     showgrid="false"
     units="px"
     inkscape:window-width="1600"
     inkscape:window-height="847"
     inkscape:window-x="-8"
     inkscape:window-y="-8"
     inkscape:window-maximized="1" />
  <metadata
     id="metadata5390">
    <rdf:RDF>
      <cc:Work
         rdf:about="">
        <dc:format>image/svg+xml</dc:format>
        <dc:type
           rdf:resource="http://purl.org/dc/dcmitype/StillImage" />
        <dc:title></dc:title>
      </cc:Work>
    </rdf:RDF>
  </metadata>
  <g
     inkscape:label="Camada 1"
     inkscape:groupmode="layer"
     id="layer1"
     transform="translate(0,-275.83286)">
    <g
       id="g6200"
       transform="matrix(0.81625502,0,0,0.81625502,-2.7823626,51.605407)">
      <path
         d="m 12.411767,277.10902 c 1.250557,1.56181 0.399825,4.32109 0.399825,4.32109 0,0 -2.8782936,0.22671 -4.1288511,-1.3351 -1.2508085,-1.56181 -0.4000778,-4.32109 -0.4000778,-4.32109 0,0 2.8785459,-0.22671 4.1291039,1.3351"
         style="fill:#80cc28;fill-opacity:1;fill-rule:nonzero;stroke:none;stroke-width:0.25162113"
         id="path154"
         inkscape:connector-curvature="0" />
      <path
         d="m 14.080593,278.63103 c -0.823807,1.02913 -0.263447,2.84684 -0.263447,2.84684 0,0 1.896469,0.14971 2.720528,-0.87942 0.823808,-1.02913 0.263447,-2.84684 0.263447,-2.84684 0,0 -1.896468,-0.14946 -2.720528,0.87942"
         style="fill:#80cc28;fill-opacity:1;fill-rule:nonzero;stroke:none;stroke-width:0.25162113"
         id="path158"
         inkscape:connector-curvature="0" />
      <path
         d="m 10.894793,285.65946 c 0.105177,0.42474 0.36938,0.7833 0.744296,1.00951 0.374914,0.2262 0.815252,0.29288 1.24024,0.18771 l 1.995356,-0.49369 0.638111,-0.12958 c 0.540734,0.5742 1.564832,1.20376 2.33278,1.43625 0.07926,0.0242 0.160282,0.0249 0.235517,0.006 0.146695,-0.0367 0.270744,-0.14695 0.317797,-0.30219 0.07095,-0.23427 -0.0614,-0.48237 -0.296158,-0.55332 -0.789587,-0.23904 -1.458144,-0.72341 -1.93396,-1.40027 -5.09e-4,-7.2e-4 -9.98e-4,-10e-4 -0.0015,-0.002 -0.102661,-0.14393 -0.286093,-0.21867 -0.468015,-0.17337 l -3.033041,0.75033 c -0.195006,0.0481 -0.396807,0.0176 -0.568664,-0.0861 -0.171858,-0.10367 -0.293138,-0.26798 -0.341198,-0.46273 l -0.0071,-0.029 c -0.09964,-0.40159 0.146192,-0.80947 0.547527,-0.90936 l 7.84e-4,-2.4e-4 7.220269,-1.7913 2.46e-4,-2.4e-4 c 0.23753,-0.0591 0.382464,-0.29968 0.323584,-0.53747 -0.05913,-0.23778 -0.299932,-0.38271 -0.537714,-0.32358 l -7.220017,1.79129 -0.0015,2.5e-4 c -0.875641,0.21815 -1.411594,1.10788 -1.194697,1.98378 z"
         style="fill:#50ade5;fill-opacity:1;fill-rule:nonzero;stroke:none;stroke-width:0.25162113"
         id="path162"
         inkscape:connector-curvature="0" />
      <path
         d="m 13.681295,294.77139 c -0.05133,-0.41492 -0.261182,-0.78506 -0.591057,-1.04246 -0.191484,-0.14896 -0.407123,-0.24685 -0.63006,-0.29465 l 0.529411,-0.67938 c 0.265461,-0.34019 0.367619,-0.75688 0.318301,-1.15494 -0.04931,-0.39781 -0.250112,-0.77676 -0.590303,-1.04222 -0.191484,-0.14921 -0.407123,-0.24709 -0.63006,-0.29489 l 0.208091,-0.26697 c 0.257157,-0.32988 0.370386,-0.74002 0.319056,-1.15495 -0.05133,-0.41517 -0.261435,-0.78531 -0.591058,-1.04246 -0.675352,-0.52664 -1.650132,-0.40989 -2.1840716,0.25665 -0.1006491,-0.20382 -0.2460858,-0.38926 -0.437066,-0.53822 -0.3298756,-0.25716 -0.7400182,-0.37039 -1.1551929,-0.31905 -0.3474887,0.043 -0.6627704,0.19853 -0.9073461,0.44134 -0.00399,5.1e-4 -0.00855,5.1e-4 -0.012582,7.1e-4 l -0.057118,0.0732 c -0.02189,0.0249 -0.044536,0.0493 -0.06517,0.0757 l -0.063658,0.0813 c 0.00128,0.001 0.002,0.003 0.003,0.004 l -0.8190264,1.05077 -0.3955487,0.49368 -0.2063296,0.26471 c 0.002,0.002 0.00378,0.004 0.00578,0.006 l -0.3039579,0.38977 c -0.1507212,0.19324 -0.1159977,0.47204 0.077248,0.62275 0.1932448,0.15072 0.472293,0.116 0.6227624,-0.0772 l 1.8169569,-2.33051 c 0.2372784,-0.24105 0.6210006,-0.27477 0.895016,-0.0634 l 0.00228,0.002 c 5.093e-4,2.5e-4 9.986e-4,5.1e-4 0.0015,7.1e-4 0.1421656,0.11122 0.2324982,0.27101 0.2548923,0.45041 0.022139,0.17966 -0.026926,0.35705 -0.13814,0.50022 l -2.5011143,3.20817 c -0.1507211,0.193 -0.1159976,0.47204 0.077248,0.62251 0.1932448,0.15072 0.4720412,0.11625 0.6225106,-0.077 l 2.5227537,-3.2361 c 0.002,-5.1e-4 0.00349,-0.001 0.00528,-0.003 0.0083,-0.0108 0.0151,-0.0227 0.023152,-0.0337 l 0.8185236,-1.05001 c 0.229981,-0.29491 0.656982,-0.34799 0.951882,-0.11801 0.142921,0.11147 0.233757,0.27175 0.256151,0.4514 0.02215,0.17992 -0.02693,0.35756 -0.138392,0.50048 l -3.1450123,4.03449 c -0.1507211,0.19325 -0.1162494,0.47204 0.076996,0.62251 0.1932448,0.15072 0.472293,0.11625 0.6227624,-0.077 l 2.0695839,-2.65485 c 0.229981,-0.29465 0.656983,-0.34749 0.95163,-0.11775 0.294901,0.22998 0.347993,0.65698 0.118011,0.95187 l -2.358193,3.025 c -0.1507211,0.19324 -0.1162487,0.47204 0.076996,0.62275 0.193245,0.15073 0.472293,0.116 0.622762,-0.077 l 0.961445,-1.23344 c 0.229982,-0.29466 0.656982,-0.3475 0.951631,-0.11776 0.14292,0.11147 0.234008,0.27175 0.25615,0.45165 0.0224,0.17967 -0.02667,0.35731 -0.13814,0.50023 l -0.730959,0.93729 c -0.150721,0.19349 -0.11625,0.47229 0.07725,0.62301 0.193246,0.15072 0.472042,0.116 0.622763,-0.0772 l 0.730707,-0.93755 c 0.257157,-0.32987 0.370639,-0.74001 0.319056,-1.15494"
         style="fill:#50ade5;fill-opacity:1;fill-rule:nonzero;stroke:none;stroke-width:0.25162113"
         id="path166"
         inkscape:connector-curvature="0" />
      <path
         d="m 23.158631,293.0914 c 0,-0.4182 -0.162798,-0.81148 -0.458453,-1.10714 l -0.07322,-0.073 c -0.0066,0.004 -0.01359,0.007 -0.02013,0.0111 l -4.093121,-4.14445 c -0.09688,0.0976 -0.219163,0.17059 -0.356045,0.20457 -0.06013,0.0151 -0.121784,0.0226 -0.183431,0.0226 -0.07448,0 -0.148709,-0.0111 -0.220168,-0.033 -0.148961,-0.0448 -0.305217,-0.10341 -0.464997,-0.17185 l 4.441617,4.46476 c -0.0013,2.5e-4 -0.0025,7.1e-4 -0.0038,7.1e-4 l 0.345979,0.34573 c 0.0045,0.004 0.0086,0.01 0.01283,0.0143 0.233504,0.26546 0.22671,0.66932 -0.02491,0.92346 l -0.0025,0.002 c -2.45e-4,5.1e-4 -5.09e-4,7.1e-4 -9.98e-4,10e-4 -0.128076,0.12733 -0.29792,0.19753 -0.478333,0.19753 -0.181167,0 -0.351515,-0.0705 -0.479589,-0.19853 l -5.242786,-5.24303 c -0.173366,-0.17312 -0.454175,-0.17312 -0.627543,0 -0.173367,0.17337 -0.173367,0.45443 0,0.62754 l 5.267689,5.26795 c 5.1e-4,0.002 0.0015,0.004 0.002,0.005 0.01006,0.01 0.02063,0.0181 0.0307,0.0275 l 0.941314,0.94131 c 0.264454,0.26446 0.264454,0.69473 0,0.95893 -0.127824,0.12808 -0.298171,0.19878 -0.479338,0.19878 -0.181167,0 -0.351515,-0.0707 -0.47959,-0.19878 l -5.983552,-5.9838 c -0.173367,-0.17311 -0.454176,-0.17311 -0.627543,0 -0.173367,0.17361 -0.173367,0.45442 0,0.62754 l 4.746833,4.74709 c 0.264202,0.2642 0.264202,0.69422 -2.46e-4,0.95867 -0.264453,0.26445 -0.694726,0.26445 -0.959179,0 l -4.13389,-4.14797 c -0.06618,0.2184 -0.171103,0.42524 -0.315282,0.61043 l -0.144934,0.18545 2.360207,2.37304 c 0.264453,0.26444 0.264202,0.69472 0,0.95917 -0.128075,0.12808 -0.298423,0.19853 -0.47959,0.19853 -0.181168,0 -0.351515,-0.0705 -0.47959,-0.19853 L 13.833546,295.754 c -0.05964,0.12858 -0.132605,0.25163 -0.22193,0.36611 l -0.287351,0.36863 0.54325,0.60515 c 0.295655,0.2959 0.688939,0.45845 1.107133,0.45845 0.418194,0 0.811227,-0.16255 1.107133,-0.45845 0.171606,-0.17161 0.2949,-0.37341 0.370135,-0.5888 l 0.608923,0.60892 c 0.305216,0.30522 0.706049,0.45796 1.106881,0.45796 0.400833,0 0.801917,-0.15299 1.106882,-0.45796 0.171857,-0.1716 0.295151,-0.37365 0.370386,-0.58904 l 0.239292,0.23954 c 0.295655,0.2954 0.688939,0.45845 1.107133,0.45845 0.418194,0 0.811227,-0.16305 1.107133,-0.45845 0.605401,-0.60565 0.609426,-1.58747 0.01359,-2.19891 0.214632,-0.0752 0.416684,-0.19652 0.587786,-0.36787 0.295907,-0.2954 0.458706,-0.68869 0.458706,-1.10688"
         style="fill:#15283f;fill-opacity:1;fill-rule:nonzero;stroke:none;stroke-width:0.25162113"
         id="path170"
         inkscape:connector-curvature="0" />
      <path
         d="m 10.703133,283.14056 c 0.236273,0 0.470028,0.0186 0.699758,0.0539 0.158019,-0.083 0.327611,-0.14971 0.508024,-0.19526 l 1.016046,-0.25212 c -0.777509,-0.34724 -1.63126,-0.51029 -2.506147,-0.46625 -1.4609122,0.074 -2.8053242,0.71258 -3.786143,1.79783 -0.9808194,1.08524 -1.4800357,2.48727 -1.4060596,3.94818 0.017361,0.34573 0.067438,0.68492 0.1466956,1.01404 l 0.031455,-0.0403 0.3930323,-0.49066 0.3044615,-0.39077 c -0.00349,-0.0453 -0.0078,-0.0903 -0.010064,-0.13612 -0.062153,-1.22968 0.3580571,-2.40977 1.1836262,-3.32341 0.8253173,-0.91364 1.9573607,-1.45085 3.186781,-1.51326 0.07976,-0.004 0.159276,-0.006 0.238537,-0.006"
         style="fill:#15283f;fill-opacity:1;fill-rule:nonzero;stroke:none;stroke-width:0.25162113"
         id="path174"
         inkscape:connector-curvature="0" />
      <path
         d="m 12.679239,285.99512 3.033293,-0.75033 c 0.04127,-0.0104 0.08253,-0.0136 0.123044,-0.0121 -0.04454,-0.003 -0.09033,7.2e-4 -0.136379,0.0121 l -3.033041,0.75033 c -0.04882,0.0121 -0.09763,0.0191 -0.146696,0.0214 0.05334,-0.001 0.106939,-0.008 0.159779,-0.0214"
         style="fill:#80cc28;fill-opacity:1;fill-rule:nonzero;stroke:none;stroke-width:0.25162113"
         id="path178"
         inkscape:connector-curvature="0" />
      <path
         d="m 10.894793,285.65946 c 0.105177,0.42474 0.36938,0.7833 0.744296,1.00951 0.281312,0.16984 0.599361,0.2496 0.920178,0.23451 -0.31654,0.0123 -0.629808,-0.0669 -0.907095,-0.23451 -0.374663,-0.22621 -0.639118,-0.58477 -0.744295,-1.00951 l -0.0071,-0.029 c -0.216646,-0.87589 0.319056,-1.76562 1.194697,-1.98378 l 0.0015,-2.4e-4 1.000193,-0.2481 -0.0025,-0.003 -1.010761,0.25087 -0.0015,2.4e-4 c -0.875642,0.21816 -1.411595,1.10789 -1.194697,1.98379 z"
         style="fill:#80cc28;fill-opacity:1;fill-rule:nonzero;stroke:none;stroke-width:0.25162113"
         id="path182"
         inkscape:connector-curvature="0" />
      <path
         d="m 17.845449,287.66974 c 0.04253,0.0131 0.0858,0.0186 0.128076,0.0186 -0.03824,-7.1e-4 -0.07674,-0.007 -0.114991,-0.0186 -0.767948,-0.2325 -1.791795,-0.86206 -2.332528,-1.43626 l -0.01107,0.002 c 0.541237,0.57345 1.563574,1.20175 2.330515,1.43399"
         style="fill:#80cc28;fill-opacity:1;fill-rule:nonzero;stroke:none;stroke-width:0.25162113"
         id="path186"
         inkscape:connector-curvature="0" />
    </g>
    <g
       id="g6189"
       transform="matrix(1.0246458,0,0,1.0246458,-8.9017848,-12.465271)">
      <path
         d="m 25.980764,295.50021 c 0.09034,-0.009 0.173457,-0.0179 0.249954,-0.0261 0.07651,-0.008 0.15709,-0.0126 0.241772,-0.0126 0.101365,0 0.203049,0.01 0.304101,0.0293 0.101365,0.0191 0.191717,0.0529 0.271049,0.10071 0.07902,0.0478 0.143549,0.11335 0.19329,0.19613 0.04974,0.0831 0.07462,0.18824 0.07462,0.31511 0,0.0683 -0.0079,0.12938 -0.0233,0.18384 -0.01575,0.0544 -0.03621,0.10259 -0.06075,0.14513 -0.02487,0.0425 -0.05257,0.0793 -0.08311,0.11047 -0.03054,0.0312 -0.06044,0.0579 -0.08972,0.08 l 0.430968,0.85155 c -0.04408,0.008 -0.09256,0.0129 -0.14481,0.0164 -0.05257,0.004 -0.100114,0.005 -0.142607,0.005 -0.03683,0 -0.07964,-0.001 -0.128441,-0.005 -0.04879,-0.004 -0.09161,-0.009 -0.12844,-0.0164 l -0.392563,-0.90412 0.02487,-0.0135 c 0.02203,-0.0113 0.04659,-0.0293 0.07335,-0.055 0.02644,-0.0258 0.05131,-0.0571 0.07462,-0.0928 0.02297,-0.0357 0.04219,-0.0758 0.05793,-0.12023 0.01575,-0.044 0.02361,-0.0901 0.02361,-0.13821 0,-0.092 -0.02581,-0.15896 -0.07744,-0.20146 -0.05163,-0.0425 -0.115215,-0.0637 -0.190773,-0.0637 -0.01825,0 -0.03401,8.9e-4 -0.0469,0.003 -0.01291,0.001 -0.02108,0.004 -0.02487,0.005 v 1.58095 c -0.09759,0.0164 -0.177867,0.0249 -0.240512,0.0249 -0.06831,0 -0.150162,-0.009 -0.245863,-0.0249 z"
         style="fill:#15283f;fill-opacity:1;fill-rule:nonzero;stroke:none;stroke-width:0.31480536"
         id="path190"
         inkscape:connector-curvature="0" />
      <path
         d="m 28.62003,296.44556 c 0,0.0645 -0.0083,0.13632 -0.02487,0.21565 h -0.53328 v 0.39256 h 0.693515 c 0.01669,0.0771 0.02487,0.14702 0.02487,0.20997 0,0.0679 -0.0083,0.14072 -0.02487,0.21816 H 27.57267 v -1.98736 h 1.166038 c 0.0076,0.0407 0.01291,0.0787 0.0167,0.1136 0.0038,0.035 0.0058,0.0683 0.0058,0.0995 0,0.0608 -0.0076,0.13348 -0.02236,0.21848 h -0.676829 v 0.3038 h 0.533278 c 0.0167,0.0809 0.02487,0.15298 0.02487,0.21563"
         style="fill:#15283f;fill-opacity:1;fill-rule:nonzero;stroke:none;stroke-width:0.31480536"
         id="path194"
         inkscape:connector-curvature="0" />
      <path
         d="m 29.39656,296.43448 c 0.0091,0.004 0.02487,0.006 0.0469,0.008 0.02236,0.001 0.04502,0.002 0.06926,0.002 0.07933,0 0.143551,-0.023 0.193292,-0.0693 0.05006,-0.0459 0.07462,-0.11585 0.07462,-0.20997 0,-0.055 -0.0079,-0.10172 -0.0233,-0.13945 -0.01575,-0.0378 -0.03746,-0.0683 -0.06517,-0.0913 -0.02739,-0.0229 -0.05982,-0.039 -0.09665,-0.0482 -0.03683,-0.01 -0.07555,-0.0139 -0.115853,-0.0139 h -0.03872 c -0.0148,0 -0.02959,8.9e-4 -0.04439,0.003 z m -0.478189,-0.93434 c 0.0425,-0.005 0.107345,-0.0133 0.194864,-0.0233 0.08751,-0.01 0.197696,-0.0154 0.330233,-0.0154 0.09759,0 0.196121,0.01 0.295916,0.0276 0.09947,0.0185 0.189196,0.0532 0.269472,0.1036 0.07996,0.0507 0.145126,0.12248 0.194549,0.21437 0.05006,0.0922 0.07493,0.21187 0.07493,0.3592 0,0.13064 -0.01983,0.23956 -0.05949,0.32645 -0.03966,0.0863 -0.09223,0.15551 -0.157716,0.20714 -0.06517,0.0516 -0.139775,0.0885 -0.223827,0.11023 -0.08374,0.0223 -0.169994,0.0334 -0.258142,0.0334 -0.03526,0 -0.07082,-8.9e-4 -0.106407,-0.005 -0.03621,-0.003 -0.06139,-0.006 -0.07618,-0.01 v 0.64409 c -0.04784,0.009 -0.09129,0.0158 -0.130015,0.0192 -0.03872,0.004 -0.07429,0.005 -0.107671,0.005 -0.06453,0 -0.144495,-0.008 -0.240509,-0.0249 z"
         style="fill:#15283f;fill-opacity:1;fill-rule:nonzero;stroke:none;stroke-width:0.31480536"
         id="path198"
         inkscape:connector-curvature="0" />
      <path
         d="m 30.424777,295.50021 c 0.09036,-0.009 0.173458,-0.0179 0.249955,-0.0261 0.07649,-0.008 0.157087,-0.0126 0.241771,-0.0126 0.101365,0 0.20305,0.01 0.304103,0.0293 0.101365,0.0191 0.191715,0.0529 0.271047,0.10071 0.07902,0.0478 0.14355,0.11335 0.193291,0.19613 0.04974,0.0831 0.07462,0.18824 0.07462,0.31511 0,0.0683 -0.0079,0.12938 -0.0233,0.18384 -0.01575,0.0544 -0.03621,0.10259 -0.06077,0.14513 -0.02487,0.0425 -0.05257,0.0793 -0.08311,0.11047 -0.03054,0.0312 -0.06044,0.0579 -0.08972,0.08 l 0.430968,0.85155 c -0.04408,0.008 -0.09256,0.0129 -0.144811,0.0164 -0.05257,0.004 -0.100114,0.005 -0.142606,0.005 -0.03683,0 -0.07965,-0.001 -0.128442,-0.005 -0.04879,-0.004 -0.09161,-0.009 -0.12844,-0.0164 l -0.392562,-0.90412 0.02487,-0.0135 c 0.02203,-0.0113 0.04659,-0.0293 0.07335,-0.055 0.02644,-0.0258 0.05131,-0.0571 0.07462,-0.0928 0.02297,-0.0357 0.04219,-0.0758 0.05793,-0.12023 0.01575,-0.044 0.02361,-0.0901 0.02361,-0.13821 0,-0.092 -0.02581,-0.15896 -0.07744,-0.20146 -0.05162,-0.0425 -0.115214,-0.0637 -0.190771,-0.0637 -0.01825,0 -0.03399,8.9e-4 -0.0469,0.003 -0.01291,0.001 -0.02108,0.004 -0.02487,0.005 v 1.58095 c -0.09759,0.0164 -0.177864,0.0249 -0.24051,0.0249 -0.06831,0 -0.150163,-0.009 -0.245864,-0.0249 z"
         style="fill:#15283f;fill-opacity:1;fill-rule:nonzero;stroke:none;stroke-width:0.31480536"
         id="path202"
         inkscape:connector-curvature="0" />
      <path
         d="m 33.064042,296.44556 c 0,0.0645 -0.0083,0.13632 -0.02487,0.21565 h -0.53328 v 0.39256 h 0.693517 c 0.0167,0.0771 0.02487,0.14702 0.02487,0.20997 0,0.0679 -0.0083,0.14072 -0.02487,0.21816 h -1.182725 v -1.98736 h 1.16604 c 0.0076,0.0407 0.01291,0.0787 0.0167,0.1136 0.0038,0.035 0.0056,0.0683 0.0056,0.0995 0,0.0608 -0.0076,0.13348 -0.02237,0.21848 h -0.676833 v 0.3038 h 0.533276 c 0.0167,0.0809 0.02487,0.15298 0.02487,0.21563"
         style="fill:#15283f;fill-opacity:1;fill-rule:nonzero;stroke:none;stroke-width:0.31480536"
         id="path206"
         inkscape:connector-curvature="0" />
      <path
         d="m 34.136332,296.26849 c 0.07744,0.0315 0.147016,0.0633 0.208716,0.0957 0.06169,0.0322 0.114589,0.0706 0.158662,0.11585 0.04439,0.045 0.0787,0.0995 0.102629,0.16307 0.02361,0.0637 0.03557,0.14071 0.03557,0.23075 0,0.0976 -0.017,0.18574 -0.051,0.26412 -0.03399,0.0783 -0.08436,0.14545 -0.150476,0.20148 -0.06642,0.0563 -0.14796,0.0998 -0.244605,0.13001 -0.09696,0.0303 -0.207771,0.0457 -0.333065,0.0457 -0.114276,0 -0.215324,-0.009 -0.302842,-0.0276 -0.0872,-0.0185 -0.181957,-0.0469 -0.283009,-0.0857 0.0073,-0.0643 0.02014,-0.13317 0.03872,-0.20589 0.01825,-0.0727 0.0403,-0.14701 0.06643,-0.22256 0.169364,0.0739 0.316692,0.11047 0.441987,0.11047 0.09412,0 0.167158,-0.0141 0.219732,-0.0428 0.05257,-0.0287 0.07869,-0.0777 0.07869,-0.14795 0,-0.0293 -0.0058,-0.0544 -0.0167,-0.0758 -0.01101,-0.021 -0.02581,-0.039 -0.04408,-0.0538 -0.01825,-0.0148 -0.03903,-0.0274 -0.06233,-0.0375 -0.02297,-0.01 -0.04659,-0.0195 -0.0702,-0.0289 l -0.154883,-0.0579 c -0.06642,-0.0239 -0.126866,-0.0525 -0.181014,-0.086 -0.05446,-0.0328 -0.10074,-0.0721 -0.139458,-0.11736 -0.03903,-0.0447 -0.06895,-0.097 -0.09003,-0.15615 -0.02108,-0.0586 -0.03179,-0.1278 -0.03179,-0.20713 0,-0.0976 0.0167,-0.18416 0.05006,-0.25972 0.03274,-0.0756 0.07933,-0.13977 0.139457,-0.19234 0.05982,-0.0523 0.132218,-0.092 0.216902,-0.11873 0.08469,-0.0268 0.179753,-0.04 0.284584,-0.04 0.09381,0 0.184791,0.01 0.272305,0.0274 0.08752,0.0185 0.181014,0.0453 0.280492,0.0803 -0.0073,0.0592 -0.02078,0.12399 -0.03997,0.19487 -0.01953,0.0711 -0.04408,0.13788 -0.07335,0.20053 -0.04785,-0.0201 -0.104204,-0.0415 -0.168733,-0.0637 -0.06453,-0.022 -0.144495,-0.033 -0.240198,-0.033 -0.02959,0 -0.05761,0.002 -0.08436,0.008 -0.02676,0.005 -0.05068,0.0141 -0.07178,0.0262 -0.02142,0.0125 -0.03841,0.0286 -0.05131,0.0497 -0.01291,0.0214 -0.01919,0.0475 -0.01919,0.0787 0,0.0535 0.0173,0.0932 0.05257,0.11898 0.03494,0.0258 0.07618,0.0478 0.124347,0.0664 z"
         style="fill:#15283f;fill-opacity:1;fill-rule:nonzero;stroke:none;stroke-width:0.31480536"
         id="path210"
         inkscape:connector-curvature="0" />
      <path
         d="m 35.858067,296.44556 c 0,0.0645 -0.0083,0.13632 -0.02487,0.21565 H 35.29992 v 0.39256 h 0.693515 c 0.0167,0.0771 0.02487,0.14702 0.02487,0.20997 0,0.0679 -0.0083,0.14072 -0.02487,0.21816 H 34.81071 v -1.98736 h 1.166037 c 0.0076,0.0407 0.01291,0.0787 0.0167,0.1136 0.0038,0.035 0.0058,0.0683 0.0058,0.0995 0,0.0608 -0.0076,0.13348 -0.02236,0.21848 h -0.67683 v 0.3038 h 0.533279 c 0.0167,0.0809 0.02487,0.15298 0.02487,0.21563"
         style="fill:#15283f;fill-opacity:1;fill-rule:nonzero;stroke:none;stroke-width:0.31480536"
         id="path214"
         inkscape:connector-curvature="0" />
      <path
         d="m 36.156596,295.50021 c 0.04029,-0.008 0.07744,-0.013 0.110498,-0.0166 0.03337,-0.004 0.06548,-0.005 0.09665,-0.005 0.03337,0 0.068,0.002 0.103567,0.008 0.03621,0.005 0.06705,0.01 0.09287,0.015 l 0.640945,1.08325 v -1.08325 c 0.04817,-0.008 0.09129,-0.0129 0.130013,-0.0166 0.03872,-0.004 0.07366,-0.005 0.10483,-0.005 0.03148,0 0.06485,0.001 0.0998,0.005 0.03494,0.004 0.07178,0.01 0.110498,0.0166 l -0.0029,1.97351 c -0.01825,0.005 -0.04501,0.0113 -0.08027,0.0164 -0.03494,0.005 -0.07271,0.009 -0.113325,0.009 -0.04597,0 -0.0872,-0.004 -0.124348,-0.01 -0.03683,-0.006 -0.06328,-0.0113 -0.07996,-0.0148 l -0.644089,-1.07862 v 1.07791 c -0.08091,0.0164 -0.15457,0.0249 -0.220994,0.0249 -0.06642,0 -0.141034,-0.009 -0.223826,-0.0249 z"
         style="fill:#15283f;fill-opacity:1;fill-rule:nonzero;stroke:none;stroke-width:0.31480536"
         id="path218"
         inkscape:connector-curvature="0" />
      <path
         d="m 38.229274,295.92601 h -0.461503 c -0.0167,-0.0793 -0.02487,-0.15205 -0.02487,-0.21817 0,-0.061 0.0083,-0.13189 0.02487,-0.21311 h 1.412215 c 0.0073,0.0405 0.01291,0.0784 0.0167,0.11335 0.0035,0.0353 0.0054,0.0683 0.0054,0.0998 0,0.0604 -0.0073,0.13317 -0.02203,0.21817 h -0.461505 v 1.54759 c -0.09759,0.0166 -0.178809,0.0249 -0.243343,0.0249 -0.068,0 -0.150162,-0.007 -0.245864,-0.0249 z"
         style="fill:#15283f;fill-opacity:1;fill-rule:nonzero;stroke:none;stroke-width:0.31480536"
         id="path222"
         inkscape:connector-curvature="0" />
      <path
         d="m 39.763322,296.01699 -0.185105,0.71052 c 0.03116,0.009 0.06044,0.0166 0.08815,0.022 0.0277,0.005 0.05635,0.009 0.08594,0.009 0.03117,0 0.06202,-0.002 0.09256,-0.007 0.03023,-0.005 0.06202,-0.0113 0.09538,-0.0204 z m -0.386897,1.45944 c -0.0425,0.008 -0.08122,0.0129 -0.116165,0.0164 -0.03494,0.004 -0.06895,0.005 -0.102316,0.005 -0.03305,0 -0.07146,-0.003 -0.114589,-0.008 -0.04344,-0.005 -0.09192,-0.0113 -0.145123,-0.0208 l 0.618907,-1.9732 c 0.04817,-0.005 0.09287,-0.01 0.134106,-0.0139 0.04156,-0.004 0.08342,-0.005 0.125608,-0.005 0.03526,0 0.07335,0.001 0.114902,0.005 0.04156,0.004 0.08877,0.008 0.142291,0.0139 l 0.610723,1.97603 c -0.10483,0.0166 -0.197069,0.0249 -0.2764,0.0249 -0.03683,0 -0.07366,-10e-4 -0.110497,-0.005 -0.03683,-0.004 -0.07651,-0.009 -0.118681,-0.0163 l -0.105143,-0.38438 c -0.05162,0.0148 -0.100739,0.0258 -0.147643,0.0334 -0.04723,0.008 -0.09381,0.0113 -0.139773,0.0113 -0.04219,0 -0.08563,-0.004 -0.1297,-0.01 -0.04439,-0.006 -0.09035,-0.016 -0.138201,-0.029 z"
         style="fill:#15283f;fill-opacity:1;fill-rule:nonzero;stroke:none;stroke-width:0.31480536"
         id="path226"
         inkscape:connector-curvature="0" />
      <path
         d="m 41.335805,297.79977 c -0.01858,0 -0.03872,8.9e-4 -0.06075,0.005 -0.02236,0.003 -0.05635,0.0113 -0.102316,0.0264 l -0.05541,-0.0554 0.182587,-0.28742 c -0.116165,-0.0239 -0.218475,-0.0654 -0.306936,-0.12461 -0.08845,-0.0586 -0.16244,-0.13159 -0.222252,-0.21816 -0.06013,-0.0863 -0.10483,-0.1851 -0.134106,-0.29592 -0.02959,-0.11022 -0.04439,-0.22917 -0.04439,-0.35604 0,-0.14764 0.02142,-0.28458 0.06359,-0.41052 0.0425,-0.12622 0.103566,-0.23545 0.183846,-0.3277 0.08027,-0.0919 0.179123,-0.16401 0.297176,-0.21564 0.117742,-0.0517 0.251531,-0.0774 0.400749,-0.0774 0.08845,0 0.171882,0.007 0.251214,0.0195 0.07933,0.0129 0.16779,0.0387 0.265381,0.0774 -0.0035,0.0756 -0.0173,0.14891 -0.04156,0.21973 -0.02392,0.0711 -0.04879,0.13317 -0.07462,0.18668 -0.03683,-0.0129 -0.07051,-0.0239 -0.100739,-0.0334 -0.03054,-0.009 -0.0595,-0.0164 -0.0872,-0.022 -0.02739,-0.005 -0.0551,-0.01 -0.0828,-0.0126 -0.0277,-0.002 -0.05698,-0.005 -0.08845,-0.005 -0.149218,0 -0.264751,0.0503 -0.346915,0.15079 -0.08185,0.10046 -0.122771,0.24996 -0.122771,0.44922 0,0.39036 0.164015,0.58554 0.492042,0.58554 0.05886,0 0.114589,-0.005 0.166847,-0.0164 0.05257,-0.0113 0.116478,-0.0297 0.192031,-0.0554 0.06107,0.13253 0.101678,0.26916 0.121833,0.40893 -0.05351,0.0204 -0.103254,0.0369 -0.149217,0.05 -0.04597,0.0129 -0.09036,0.0224 -0.132534,0.0287 -0.0425,0.006 -0.08438,0.0113 -0.125923,0.0139 -0.04156,0.002 -0.08405,0.005 -0.128441,0.005 -0.0058,0 -0.01076,-7e-4 -0.01511,-10e-4 -0.0048,-9e-4 -0.0098,-9e-4 -0.01541,-9e-4 l -0.06895,0.11047 c 0.101365,0.004 0.180384,0.0274 0.237363,0.0706 0.0573,0.043 0.08594,0.10008 0.08594,0.16998 0,0.0957 -0.03997,0.16811 -0.120257,0.21691 -0.07997,0.0488 -0.188253,0.0733 -0.324565,0.0733 -0.0425,0 -0.08625,-0.002 -0.131274,-0.008 -0.04533,-0.005 -0.08625,-0.0158 -0.123084,-0.0305 0,-0.0201 0.0044,-0.0488 0.01386,-0.0857 0.0091,-0.0369 0.02392,-0.0702 0.04408,-0.0998 0.03526,0.0113 0.06705,0.0191 0.09539,0.0239 0.02865,0.005 0.06044,0.006 0.09538,0.006 0.04784,0 0.08122,-0.008 0.09948,-0.0249 0.01858,-0.0166 0.0277,-0.0359 0.0277,-0.0579 0,-0.022 -0.0091,-0.0403 -0.0277,-0.0542 -0.01825,-0.0139 -0.04597,-0.0204 -0.0828,-0.0204"
         style="fill:#15283f;fill-opacity:1;fill-rule:nonzero;stroke:none;stroke-width:0.31480536"
         id="path230"
         inkscape:connector-curvature="0" />
      <path
         d="m 43.250767,296.49536 c 0,-0.40168 -0.116791,-0.60253 -0.350694,-0.60253 -0.239882,0 -0.359506,0.20085 -0.359506,0.60253 0,0.20086 0.02895,0.35038 0.0872,0.44891 0.05793,0.0986 0.147642,0.14797 0.269473,0.14797 0.23579,0 0.353527,-0.19896 0.353527,-0.59688 m -0.884289,-1.41788 c 0.03494,-0.0405 0.07965,-0.0756 0.134106,-0.10509 0.05415,-0.0297 0.116479,-0.0444 0.186367,-0.0444 0.03683,0 0.07178,0.005 0.103879,0.0154 0.0321,0.01 0.0658,0.0217 0.100739,0.0347 0.03117,0.0129 0.06422,0.0245 0.09822,0.0346 0.03399,0.01 0.06956,0.015 0.106407,0.015 0.03683,0 0.06926,-0.005 0.0979,-0.015 0.02864,-0.01 0.06233,-0.0337 0.101052,-0.0708 0.02928,0.0315 0.05446,0.0683 0.07587,0.11085 0.02108,0.0425 0.03841,0.0857 0.05131,0.1297 -0.03337,0.0425 -0.07744,0.0781 -0.132847,0.10672 -0.05541,0.0287 -0.114902,0.0428 -0.179438,0.0428 -0.04061,0 -0.07933,-0.005 -0.116166,-0.0166 -0.03715,-0.0113 -0.07178,-0.022 -0.10483,-0.033 -0.03526,-0.0131 -0.06895,-0.0245 -0.101052,-0.0347 -0.0321,-0.01 -0.06517,-0.0154 -0.09822,-0.0154 -0.03683,0 -0.07051,0.005 -0.101052,0.0166 -0.03023,0.0113 -0.06202,0.034 -0.09507,0.0692 -0.02959,-0.0315 -0.05477,-0.0683 -0.07587,-0.11085 -0.02142,-0.0422 -0.03872,-0.0853 -0.05131,-0.1297 m -0.33999,1.41788 c 0,-0.14764 0.017,-0.28426 0.051,-0.4105 0.03432,-0.12624 0.08689,-0.23548 0.157717,-0.32771 0.07082,-0.092 0.161181,-0.16432 0.271048,-0.21658 0.109234,-0.0525 0.239567,-0.079 0.390987,-0.079 0.150794,0 0.280809,0.0264 0.389417,0.079 0.108921,0.0523 0.198641,0.12461 0.269786,0.21658 0.07051,0.0922 0.123097,0.20147 0.157405,0.32771 0.03399,0.12624 0.051,0.26286 0.051,0.4105 0,0.14733 -0.017,0.28302 -0.051,0.40768 -0.03432,0.12398 -0.08689,0.23201 -0.157405,0.323 -0.07115,0.0913 -0.160865,0.16243 -0.269786,0.21311 -0.108609,0.0503 -0.238623,0.0758 -0.389417,0.0758 -0.15142,0 -0.281749,-0.0255 -0.390987,-0.0758 -0.10986,-0.0507 -0.200217,-0.12186 -0.271048,-0.21311 -0.07082,-0.091 -0.123397,-0.19897 -0.157717,-0.323 -0.03399,-0.12461 -0.051,-0.26035 -0.051,-0.40768"
         style="fill:#15283f;fill-opacity:1;fill-rule:nonzero;stroke:none;stroke-width:0.31480536"
         id="path234"
         inkscape:connector-curvature="0" />
      <path
         d="m 44.980969,296.44556 c 0,0.0645 -0.0083,0.13632 -0.02487,0.21565 h -0.533281 v 0.39256 h 0.693832 c 0.01637,0.0771 0.02487,0.14702 0.02487,0.20997 0,0.0679 -0.0085,0.14072 -0.02487,0.21816 h -1.183039 v -1.98736 h 1.166353 c 0.0073,0.0407 0.01291,0.0787 0.0167,0.1136 0.0035,0.035 0.0054,0.0683 0.0054,0.0995 0,0.0608 -0.0073,0.13348 -0.02203,0.21848 h -0.67714 v 0.3038 h 0.533281 c 0.0167,0.0809 0.02487,0.15298 0.02487,0.21563"
         style="fill:#15283f;fill-opacity:1;fill-rule:nonzero;stroke:none;stroke-width:0.31480536"
         id="path238"
         inkscape:connector-curvature="0" />
      <path
         d="m 46.053291,296.26849 c 0.07713,0.0315 0.147014,0.0633 0.208715,0.0957 0.06138,0.0322 0.114589,0.0706 0.158661,0.11585 0.04439,0.045 0.07838,0.0995 0.102316,0.16307 0.02392,0.0637 0.03589,0.14071 0.03589,0.23075 0,0.0976 -0.017,0.18574 -0.051,0.26412 -0.03399,0.0783 -0.08438,0.14545 -0.150478,0.20148 -0.06642,0.0563 -0.147958,0.0998 -0.244917,0.13001 -0.09665,0.0303 -0.207773,0.0457 -0.33275,0.0457 -0.114276,0 -0.215327,-0.009 -0.302843,-0.0276 -0.0872,-0.0185 -0.181958,-0.0469 -0.283011,-0.0857 0.0073,-0.0643 0.02014,-0.13317 0.03872,-0.20589 0.01825,-0.0727 0.0403,-0.14701 0.06642,-0.22256 0.169364,0.0739 0.316379,0.11047 0.441987,0.11047 0.09412,0 0.167162,-0.0141 0.219733,-0.0428 0.05226,-0.0287 0.07871,-0.0777 0.07871,-0.14795 0,-0.0293 -0.0056,-0.0544 -0.0167,-0.0758 -0.01101,-0.021 -0.02581,-0.039 -0.04408,-0.0538 -0.01858,-0.0148 -0.03903,-0.0274 -0.06233,-0.0375 -0.02297,-0.01 -0.04659,-0.0195 -0.0702,-0.0289 l -0.154885,-0.0579 c -0.06642,-0.0239 -0.126865,-0.0525 -0.181327,-0.086 -0.05415,-0.0328 -0.100739,-0.0721 -0.13946,-0.11736 -0.03872,-0.0447 -0.06862,-0.097 -0.08972,-0.15615 -0.02108,-0.0586 -0.03179,-0.1278 -0.03179,-0.20713 0,-0.0976 0.01669,-0.18416 0.05006,-0.25972 0.03274,-0.0756 0.07933,-0.13977 0.139458,-0.19234 0.0595,-0.0523 0.132217,-0.092 0.216588,-0.11873 0.085,-0.0268 0.180067,-0.04 0.284897,-0.04 0.09381,0 0.184791,0.01 0.272308,0.0274 0.0872,0.0185 0.181011,0.0453 0.280491,0.0803 -0.0076,0.0592 -0.02077,0.12399 -0.03997,0.19487 -0.01953,0.0711 -0.04408,0.13788 -0.07335,0.20053 -0.04785,-0.0201 -0.104204,-0.0415 -0.168737,-0.0637 -0.06453,-0.022 -0.144495,-0.033 -0.240512,-0.033 -0.02927,0 -0.05729,0.002 -0.08405,0.008 -0.02676,0.005 -0.05068,0.0141 -0.07209,0.0262 -0.02108,0.0125 -0.03808,0.0286 -0.051,0.0497 -0.01291,0.0214 -0.01919,0.0475 -0.01919,0.0787 0,0.0535 0.0173,0.0932 0.05257,0.11898 0.03494,0.0258 0.07618,0.0478 0.124035,0.0664 z"
         style="fill:#15283f;fill-opacity:1;fill-rule:nonzero;stroke:none;stroke-width:0.31480536"
         id="path242"
         inkscape:connector-curvature="0" />
      <path
         d="m 30.044618,292.79023 h -3.968123 c -0.169677,0 -0.209974,-0.23201 -0.188253,-0.45395 l 0.557521,-5.61487 c 0.04943,-0.49614 1.329423,-1.02374 1.28,-0.52761 l -0.548078,5.5198 h 2.973652 c 0.41271,0 0.305992,1.07663 -0.106719,1.07663"
         style="fill:#80cc28;fill-opacity:1;fill-rule:nonzero;stroke:none;stroke-width:0.31480536"
         id="path246"
         inkscape:connector-curvature="0" />
      <path
         d="m 32.437044,291.70287 c -0.03274,0.0113 -0.0658,0.0214 -0.09759,0.0214 -0.105782,0 -0.150162,-0.0843 -0.136627,-0.22195 l 0.351323,-3.53525 c 0.04911,-0.49614 -1.251035,0.0208 -1.301404,0.5276 l -0.328972,3.31427 c -0.07335,0.73853 0.255937,1.04453 0.732236,1.04453 0.211866,0 0.449859,-0.0529 0.682499,-0.15834 0.466542,-0.22163 0.561928,-1.1821 0.09854,-0.99227"
         style="fill:#80cc28;fill-opacity:1;fill-rule:nonzero;stroke:none;stroke-width:0.31480536"
         id="path250"
         inkscape:connector-curvature="0" />
      <path
         d="m 38.461665,292.72692 c -0.295917,0.10547 -0.578614,0.17945 -0.843365,0.17945 -0.550281,0 -0.938749,-0.34818 -0.837067,-1.37224 l 0.08154,-0.82291 0.06705,-0.67557 c 0.07776,-0.78134 -0.237679,-1.11913 -0.872955,-1.11913 -0.423098,0 -0.898139,0.20086 -1.404663,0.71776 l -0.289305,2.91321 c -0.04156,0.42215 -1.279684,0.42215 -1.237815,0 l 0.437895,-4.41168 c 0.03997,-0.40106 0.968025,-0.36959 1.045469,-0.0843 l 0.115852,0.538 c 0.568852,-0.50652 1.250407,-0.75993 1.959346,-0.75993 1.058064,0 1.637619,0.66517 1.527438,1.77329 l -0.134107,1.35084 -0.03872,0.39067 c -0.03023,0.30599 0.06077,0.45394 0.272306,0.45394 0.07398,0 0.149218,-0.0113 0.248696,-0.0529 0.444191,-0.21124 0.365804,0.79141 -0.09759,0.98155"
         style="fill:#80cc28;fill-opacity:1;fill-rule:nonzero;stroke:none;stroke-width:0.31480536"
         id="path254"
         inkscape:connector-curvature="0" />
      <path
         d="m 41.225309,289.92995 c 0.878621,0 1.579695,-0.13726 1.595432,-0.2956 0.05132,-0.51691 -0.305673,-0.86541 -1.046412,-0.86541 -0.677146,0 -1.247258,0.30598 -1.338551,1.1185 0.271991,0.0322 0.535483,0.0425 0.789531,0.0425 m -0.01605,0.90789 c -0.285528,0 -0.600962,-0.0216 -0.882399,-0.0636 -0.05351,0.74924 0.59876,1.10811 1.339497,1.10811 0.444506,0 0.923639,-0.13694 1.487455,-0.37998 0.408302,-0.16872 0.322361,0.69667 0.0073,0.88682 -0.516913,0.30599 -1.093635,0.46433 -1.686101,0.46433 -1.301719,0 -2.529146,-0.74924 -2.350651,-2.54362 0.149847,-1.50919 1.081987,-2.48036 2.690641,-2.48036 1.545066,0 2.242361,0.75995 2.103846,2.15327 -0.04911,0.49583 -1.376015,0.85502 -2.70953,0.85502"
         style="fill:#80cc28;fill-opacity:1;fill-rule:nonzero;stroke:none;stroke-width:0.31480536"
         id="path258"
         inkscape:connector-curvature="0" />
      <path
         d="m 52.620227,286.20422 -0.629927,6.34302 c -0.04187,0.42215 -1.148727,0.37996 -1.251036,0.12686 -0.869494,-2.21624 -1.611489,-3.37754 -2.776898,-4.74916 l -0.458987,4.6223 c -0.04187,0.42215 -1.28,0.42215 -1.238129,0 l 0.611982,-6.1639 c 0.04219,-0.42184 1.023117,-0.39003 1.194686,-0.19989 1.275275,1.32942 2.172785,2.62799 2.897152,4.07357 l 0.350064,-3.52487 c 0.04911,-0.49583 1.350202,-1.02407 1.301093,-0.52793"
         style="fill:#80cc28;fill-opacity:1;fill-rule:nonzero;stroke:none;stroke-width:0.31480536"
         id="path262"
         inkscape:connector-curvature="0" />
      <path
         d="m 57.965777,292.67404 c -0.295915,0.10572 -0.57861,0.17943 -0.843047,0.17943 -0.423415,0 -0.751756,-0.21122 -0.832346,-0.78103 -0.571372,0.52793 -1.262999,0.78103 -1.98233,0.78103 -1.05806,0 -1.637931,-0.66455 -1.529324,-1.76227 l 0.259085,-2.60722 c 0.04943,-0.49613 1.329109,-1.02375 1.28,-0.52762 l -0.267901,2.70198 c -0.07713,0.77065 0.237679,1.1185 0.872641,1.1185 0.423412,0 0.898453,-0.20054 1.405605,-0.72783 l 0.289308,-2.9132 c 0.04187,-0.42217 1.279998,-0.42217 1.238129,0 l -0.313231,3.1556 c -0.03023,0.3063 0.06077,0.45396 0.272305,0.45396 0.07398,0 0.150163,-0.021 0.249326,-0.0631 0.443562,-0.20084 0.366433,0.79111 -0.09822,0.99164"
         style="fill:#80cc28;fill-opacity:1;fill-rule:nonzero;stroke:none;stroke-width:0.31480536"
         id="path266"
         inkscape:connector-curvature="0" />
      <path
         d="m 61.684104,292.51572 c -1.428903,0.74924 -2.863158,0.27451 -2.671441,-1.65713 l 0.169995,-1.7094 h -0.645664 c -0.423416,0 -0.315435,-1.08703 0.107983,-1.08703 h 0.645349 l 0.344712,-1.34075 c 0.08342,-0.30599 1.067821,-0.30599 1.027842,0.0951 l -0.123722,1.24568 H 62.2007 c 0.423097,0 0.315435,1.08702 -0.107983,1.08702 H 60.43149 l -0.174089,1.75158 c -0.09885,0.99227 0.475041,1.1821 1.526176,0.61231 0.368321,-0.19016 0.28238,0.78102 -0.09948,1.00265"
         style="fill:#80cc28;fill-opacity:1;fill-rule:nonzero;stroke:none;stroke-width:0.31480536"
         id="path270"
         inkscape:connector-curvature="0" />
      <path
         d="m 65.582903,289.05409 c -0.617332,0.0315 -1.130464,0.19015 -1.668467,0.70673 l -0.276714,2.78667 c -0.04187,0.42215 -1.290386,0.42215 -1.248833,0 l 0.436321,-4.3909 c 0.03966,-0.40076 1.044207,-0.39037 1.088596,-0.0945 l 0.09507,0.64346 c 0.451432,-0.49613 1.096154,-0.81251 1.923776,-0.83361 0.392878,-0.0113 0.02142,1.17139 -0.34975,1.1821"
         style="fill:#80cc28;fill-opacity:1;fill-rule:nonzero;stroke:none;stroke-width:0.31480536"
         id="path274"
         inkscape:connector-curvature="0" />
      <path
         d="m 31.591919,286.19072 c -0.345656,0.43159 -0.110498,1.19437 -0.110498,1.19437 0,0 0.795512,0.0627 1.14117,-0.36895 0.34597,-0.43161 0.110498,-1.19437 0.110498,-1.19437 0,0 -0.795514,-0.0627 -1.14117,0.36895"
         style="fill:#80cc28;fill-opacity:1;fill-rule:nonzero;stroke:none;stroke-width:0.31480536"
         id="path278"
         inkscape:connector-curvature="0" />
      <path
         d="m 69.757162,288.16747 c -0.499598,1.08671 -1.074432,2.18444 -1.696489,3.22959 -0.574832,-1.13991 -0.92773,-2.0582 -1.182723,-3.21888 -0.02739,-0.11648 -0.128441,-0.20337 -0.262548,-0.26223 0.01226,0.0592 0.01953,0.12273 0.02047,0.19139 0.006,0.40831 -0.220679,1.10843 -0.673369,1.37476 0.355415,1.01398 0.815346,2.00626 1.403716,3.04448 -0.137883,0.22162 -0.275769,0.43255 -0.412709,0.64379 -0.34786,0.5169 -0.633389,0.72782 -0.929619,0.72782 -0.137572,0 -0.281753,-0.0422 -0.430971,-0.13694 -0.40956,-0.24303 -0.605055,0.77034 -0.255306,0.97118 0.261603,0.13693 0.529503,0.21059 0.804956,0.21059 0.550281,0 1.120079,-0.30567 1.677284,-1.1185 1.298573,-1.88884 2.383393,-3.7575 3.238719,-5.65705 0.202734,-0.44324 -1.10843,-0.45364 -1.301405,0"
         style="fill:#80cc28;fill-opacity:1;fill-rule:nonzero;stroke:none;stroke-width:0.31480536"
         id="path282"
         inkscape:connector-curvature="0" />
    </g>
  </g>
</svg>
